<svg width="27" height="24" viewBox="0 0 27 24" fill="none" xmlns="http://www.w3.org/2000/svg">
<path d="M0.0568182 9V0.272727H5.32386V1.21023H1.11364V4.15909H5.05114V5.09659H1.11364V8.0625H5.39205V9H0.0568182ZM20.881 9V0.272727H26.1481V1.21023H21.9379V4.15909H25.8754V5.09659H21.9379V8.0625H26.2163V9H20.881ZM10.0998 24V15.2727H15.3668V16.2102H11.1566V19.1591H15.0941V20.0966H11.1566V23.0625H15.435V24H10.0998Z" fill="#7D7D7D"/>
<path d="M15.0014 2.45455C14.9503 2.02273 14.7429 1.6875 14.3793 1.44886C14.0156 1.21023 13.5696 1.09091 13.0412 1.09091C12.6548 1.09091 12.3168 1.15341 12.027 1.27841C11.7401 1.40341 11.5156 1.57528 11.3537 1.79403C11.1946 2.01278 11.1151 2.26136 11.1151 2.53977C11.1151 2.77273 11.1705 2.97301 11.2812 3.14062C11.3949 3.3054 11.5398 3.44318 11.7159 3.55398C11.892 3.66193 12.0767 3.75142 12.2699 3.82244C12.4631 3.89062 12.6406 3.94602 12.8026 3.98864L13.6889 4.22727C13.9162 4.28693 14.169 4.36932 14.4474 4.47443C14.7287 4.57955 14.9972 4.72301 15.2528 4.90483C15.5114 5.08381 15.7244 5.31392 15.892 5.59517C16.0597 5.87642 16.1435 6.22159 16.1435 6.63068C16.1435 7.10227 16.0199 7.52841 15.7727 7.90909C15.5284 8.28977 15.1705 8.59233 14.6989 8.81676C14.2301 9.04119 13.6605 9.15341 12.9901 9.15341C12.3651 9.15341 11.8239 9.05256 11.3665 8.85085C10.9119 8.64915 10.554 8.3679 10.2926 8.0071C10.0341 7.64631 9.88778 7.22727 9.85369 6.75H10.9446C10.973 7.07955 11.0838 7.35227 11.277 7.56818C11.473 7.78125 11.7202 7.94034 12.0185 8.04545C12.3196 8.14773 12.6435 8.19886 12.9901 8.19886C13.3935 8.19886 13.7557 8.13352 14.0767 8.00284C14.3977 7.86932 14.652 7.68466 14.8395 7.44886C15.027 7.21023 15.1207 6.93182 15.1207 6.61364C15.1207 6.32386 15.0398 6.08807 14.8778 5.90625C14.7159 5.72443 14.5028 5.5767 14.2386 5.46307C13.9744 5.34943 13.6889 5.25 13.3821 5.16477L12.3082 4.85795C11.6264 4.66193 11.0866 4.3821 10.6889 4.01847C10.2912 3.65483 10.0923 3.17898 10.0923 2.59091C10.0923 2.10227 10.2244 1.67614 10.4886 1.3125C10.7557 0.946023 11.1136 0.661932 11.5625 0.460227C12.0142 0.255682 12.5185 0.153409 13.0753 0.153409C13.6378 0.153409 14.1378 0.254261 14.5753 0.455966C15.0128 0.654829 15.3594 0.927556 15.6151 1.27415C15.8736 1.62074 16.0099 2.0142 16.0241 2.45455H15.0014ZM0.0568182 24V15.2727H5.28977V16.2102H1.11364V19.1591H4.89773V20.0966H1.11364V24H0.0568182ZM20.783 15.2727L23.033 18.9034H23.1012L25.3512 15.2727H26.5955L23.8512 19.6364L26.5955 24H25.3512L23.1012 20.4375H23.033L20.783 24H19.5387L22.3512 19.6364L19.5387 15.2727H20.783Z" fill="white"/>
</svg>
